<svg xmlns="http://www.w3.org/2000/svg" viewBox="0 0 1200 800" width="1200" height="800">
  <defs>
    <linearGradient id="bg" x1="0%" y1="0%" x2="100%" y2="100%">
      <stop offset="0%" stop-color="#0B0F19"/>
      <stop offset="100%" stop-color="#111827"/>
    </linearGradient>
    <linearGradient id="panel-bg" x1="0%" y1="0%" x2="0%" y2="100%">
      <stop offset="0%" stop-color="#1F2937" stop-opacity="0.8"/>
      <stop offset="100%" stop-color="#111827" stop-opacity="0.9"/>
    </linearGradient>
    <linearGradient id="accent" x1="0%" y1="0%" x2="100%" y2="0%">
      <stop offset="0%" stop-color="#EAB308"/>
      <stop offset="100%" stop-color="#F59E0B"/>
    </linearGradient>
    <linearGradient id="accent-blue" x1="0%" y1="0%" x2="100%" y2="0%">
      <stop offset="0%" stop-color="#3B82F6"/>
      <stop offset="100%" stop-color="#2563EB"/>
    </linearGradient>
  </defs>
  <rect width="1200" height="800" fill="url(#bg)"/>
  
  <text x="50" y="80" font-family="sans-serif" font-size="28" font-weight="bold" fill="#ffffff">ROLE MENU</text>
  <text x="50" y="110" font-family="sans-serif" font-size="14" fill="#9CA3AF">Create self-assignable role menus for players.</text>

  <rect x="50" y="150" width="1100" height="600" rx="12" fill="url(#panel-bg)" stroke="#374151" stroke-width="1"/>
  <text x="90" y="200" font-family="sans-serif" font-size="20" font-weight="bold" fill="#F3F4F6">Active Categories</text>
  
  <rect x="900" y="170" width="200" height="40" rx="4" fill="url(#accent)"/>
  <text x="1000" y="195" font-family="sans-serif" font-size="14" font-weight="bold" fill="#111827" text-anchor="middle">SEND TO CHANNEL</text>

  <rect x="90" y="240" width="320" height="400" rx="6" fill="#111827" stroke="#374151"/>
  <text x="120" y="280" font-family="sans-serif" font-size="18" font-weight="bold" fill="#EF4444">Combat Roles</text>
  <text x="120" y="300" font-family="sans-serif" font-size="12" fill="#9CA3AF">Max selection: 5</text>
  <rect x="120" y="320" width="260" height="40" rx="4" fill="#1F2937"/>
  <text x="140" y="345" font-family="sans-serif" font-size="14" fill="#F3F4F6">⚔️ PvP Role</text>
  <rect x="120" y="370" width="260" height="40" rx="4" fill="#1F2937"/>
  <text x="140" y="395" font-family="sans-serif" font-size="14" fill="#F3F4F6">🛡️ PvE Role</text>

  <rect x="440" y="240" width="320" height="400" rx="6" fill="#111827" stroke="#374151"/>
  <text x="470" y="280" font-family="sans-serif" font-size="18" font-weight="bold" fill="#3B82F6">Economy Roles</text>
  <text x="470" y="300" font-family="sans-serif" font-size="12" fill="#9CA3AF">Max selection: 3</text>
  <rect x="470" y="320" width="260" height="40" rx="4" fill="#1F2937"/>
  <text x="490" y="345" font-family="sans-serif" font-size="14" fill="#F3F4F6">⛏️ Gatherer</text>
  <rect x="470" y="370" width="260" height="40" rx="4" fill="#1F2937"/>
  <text x="490" y="395" font-family="sans-serif" font-size="14" fill="#F3F4F6">🔨 Crafter</text>

</svg>